<?xml version="1.0" encoding="UTF-8" standalone="no"?>
<!DOCTYPE svg PUBLIC "-//W3C//DTD SVG 1.1//EN"
 "http://www.w3.org/Graphics/SVG/1.1/DTD/svg11.dtd">
<!-- Generated by graphviz version 3.0.0 (20220226.1711)
 -->
<!-- Title: dependencies Pages: 1 -->
<svg width="1302pt" height="247pt"
 viewBox="0.00 0.00 1302.00 246.80" xmlns="http://www.w3.org/2000/svg" xmlns:xlink="http://www.w3.org/1999/xlink">
<g id="graph0" class="graph" transform="scale(1 1) rotate(0) translate(4 242.8)">
<title>dependencies</title>
<polygon fill="white" stroke="transparent" points="-4,4 -4,-242.8 1298,-242.8 1298,4 -4,4"/>
<text text-anchor="middle" x="647" y="-8.2" font-family="sans-serif" font-size="14.00">dependencies</text>
<g id="clust1" class="cluster">
<title>cluster_AppModule</title>
<polygon fill="none" stroke="black" stroke-dasharray="1,5" points="8,-32.8 8,-230.8 1286,-230.8 1286,-32.8 8,-32.8"/>
</g>
<g id="clust11" class="cluster">
<title>cluster_AppModule_imports</title>
<polygon fill="none" stroke="black" points="1134,-40.8 1134,-92.8 1278,-92.8 1278,-40.8 1134,-40.8"/>
</g>
<g id="clust13" class="cluster">
<title>cluster_AppModule_bootstrap</title>
<polygon fill="none" stroke="black" points="576,-170.8 576,-222.8 700,-222.8 700,-170.8 576,-170.8"/>
</g>
<g id="clust2" class="cluster">
<title>cluster_AppModule_declarations</title>
<polygon fill="none" stroke="black" points="16,-40.8 16,-92.8 1126,-92.8 1126,-40.8 16,-40.8"/>
</g>
<!-- AppComponent -->
<g id="node1" class="node">
<title>AppComponent</title>
<polygon fill="#ffffb3" stroke="black" points="1117.94,-84.8 1012.06,-84.8 1012.06,-48.8 1117.94,-48.8 1117.94,-84.8"/>
<text text-anchor="middle" x="1065" y="-62.6" font-family="Times,serif" font-size="14.00">AppComponent</text>
</g>
<!-- AppModule -->
<g id="node9" class="node">
<title>AppModule</title>
<polygon fill="#8dd3c7" stroke="black" points="679.66,-149.8 676.66,-153.8 655.66,-153.8 652.66,-149.8 596.34,-149.8 596.34,-113.8 679.66,-113.8 679.66,-149.8"/>
<text text-anchor="middle" x="638" y="-127.6" font-family="Times,serif" font-size="14.00">AppModule</text>
</g>
<!-- AppComponent&#45;&gt;AppModule -->
<g id="edge1" class="edge">
<title>AppComponent&#45;&gt;AppModule</title>
<path fill="none" stroke="black" d="M1065,-84.93C1065,-105.37 1065,-135.8 1065,-135.8 1065,-135.8 689.72,-135.8 689.72,-135.8"/>
<polygon fill="black" stroke="black" points="689.72,-132.3 679.72,-135.8 689.72,-139.3 689.72,-132.3"/>
</g>
<!-- CategoriesComponent -->
<g id="node2" class="node">
<title>CategoriesComponent</title>
<polygon fill="#ffffb3" stroke="black" points="994.7,-84.8 853.3,-84.8 853.3,-48.8 994.7,-48.8 994.7,-84.8"/>
<text text-anchor="middle" x="924" y="-62.6" font-family="Times,serif" font-size="14.00">CategoriesComponent</text>
</g>
<!-- CategoriesComponent&#45;&gt;AppModule -->
<g id="edge2" class="edge">
<title>CategoriesComponent&#45;&gt;AppModule</title>
<path fill="none" stroke="black" d="M924,-85.07C924,-103.36 924,-128.8 924,-128.8 924,-128.8 689.89,-128.8 689.89,-128.8"/>
<polygon fill="black" stroke="black" points="689.89,-125.3 679.89,-128.8 689.89,-132.3 689.89,-125.3"/>
</g>
<!-- FooterComponent -->
<g id="node3" class="node">
<title>FooterComponent</title>
<polygon fill="#ffffb3" stroke="black" points="834.88,-84.8 717.12,-84.8 717.12,-48.8 834.88,-48.8 834.88,-84.8"/>
<text text-anchor="middle" x="776" y="-62.6" font-family="Times,serif" font-size="14.00">FooterComponent</text>
</g>
<!-- FooterComponent&#45;&gt;AppModule -->
<g id="edge3" class="edge">
<title>FooterComponent&#45;&gt;AppModule</title>
<path fill="none" stroke="black" d="M776,-84.81C776,-100.85 776,-121.8 776,-121.8 776,-121.8 689.78,-121.8 689.78,-121.8"/>
<polygon fill="black" stroke="black" points="689.78,-118.3 679.78,-121.8 689.78,-125.3 689.78,-118.3"/>
</g>
<!-- HeaderComponent -->
<g id="node4" class="node">
<title>HeaderComponent</title>
<polygon fill="#ffffb3" stroke="black" points="698.75,-84.8 577.25,-84.8 577.25,-48.8 698.75,-48.8 698.75,-84.8"/>
<text text-anchor="middle" x="638" y="-62.6" font-family="Times,serif" font-size="14.00">HeaderComponent</text>
</g>
<!-- HeaderComponent&#45;&gt;AppModule -->
<g id="edge4" class="edge">
<title>HeaderComponent&#45;&gt;AppModule</title>
<path fill="none" stroke="black" d="M638,-84.91C638,-84.91 638,-103.79 638,-103.79"/>
<polygon fill="black" stroke="black" points="634.5,-103.79 638,-113.79 641.5,-103.79 634.5,-103.79"/>
</g>
<!-- MainComponent -->
<g id="node5" class="node">
<title>MainComponent</title>
<polygon fill="#ffffb3" stroke="black" points="559.38,-84.8 448.62,-84.8 448.62,-48.8 559.38,-48.8 559.38,-84.8"/>
<text text-anchor="middle" x="504" y="-62.6" font-family="Times,serif" font-size="14.00">MainComponent</text>
</g>
<!-- MainComponent&#45;&gt;AppModule -->
<g id="edge5" class="edge">
<title>MainComponent&#45;&gt;AppModule</title>
<path fill="none" stroke="black" d="M504,-84.81C504,-100.85 504,-121.8 504,-121.8 504,-121.8 586.34,-121.8 586.34,-121.8"/>
<polygon fill="black" stroke="black" points="586.34,-125.3 596.34,-121.8 586.34,-118.3 586.34,-125.3"/>
</g>
<!-- TodoListComponent -->
<g id="node6" class="node">
<title>TodoListComponent</title>
<polygon fill="#ffffb3" stroke="black" points="430.16,-84.8 297.84,-84.8 297.84,-48.8 430.16,-48.8 430.16,-84.8"/>
<text text-anchor="middle" x="364" y="-62.6" font-family="Times,serif" font-size="14.00">TodoListComponent</text>
</g>
<!-- TodoListComponent&#45;&gt;AppModule -->
<g id="edge6" class="edge">
<title>TodoListComponent&#45;&gt;AppModule</title>
<path fill="none" stroke="black" d="M364,-85.07C364,-103.36 364,-128.8 364,-128.8 364,-128.8 586.09,-128.8 586.09,-128.8"/>
<polygon fill="black" stroke="black" points="586.09,-132.3 596.09,-128.8 586.09,-125.3 586.09,-132.3"/>
</g>
<!-- UserComponent -->
<g id="node7" class="node">
<title>UserComponent</title>
<polygon fill="#ffffb3" stroke="black" points="279.77,-84.8 172.23,-84.8 172.23,-48.8 279.77,-48.8 279.77,-84.8"/>
<text text-anchor="middle" x="226" y="-62.6" font-family="Times,serif" font-size="14.00">UserComponent</text>
</g>
<!-- UserComponent&#45;&gt;AppModule -->
<g id="edge7" class="edge">
<title>UserComponent&#45;&gt;AppModule</title>
<path fill="none" stroke="black" d="M226,-84.93C226,-105.37 226,-135.8 226,-135.8 226,-135.8 586.23,-135.8 586.23,-135.8"/>
<polygon fill="black" stroke="black" points="586.23,-139.3 596.23,-135.8 586.23,-132.3 586.23,-139.3"/>
</g>
<!-- UserListComponent -->
<g id="node8" class="node">
<title>UserListComponent</title>
<polygon fill="#ffffb3" stroke="black" points="153.55,-84.8 24.45,-84.8 24.45,-48.8 153.55,-48.8 153.55,-84.8"/>
<text text-anchor="middle" x="89" y="-62.6" font-family="Times,serif" font-size="14.00">UserListComponent</text>
</g>
<!-- UserListComponent&#45;&gt;AppModule -->
<g id="edge8" class="edge">
<title>UserListComponent&#45;&gt;AppModule</title>
<path fill="none" stroke="black" d="M89,-84.81C89,-107.29 89,-142.8 89,-142.8 89,-142.8 586.29,-142.8 586.29,-142.8"/>
<polygon fill="black" stroke="black" points="586.29,-146.3 596.29,-142.8 586.29,-139.3 586.29,-146.3"/>
</g>
<!-- AppComponent  -->
<g id="node11" class="node">
<title>AppComponent </title>
<polygon fill="#80b1d3" stroke="black" points="692.44,-214.8 583.56,-214.8 583.56,-178.8 692.44,-178.8 692.44,-214.8"/>
<text text-anchor="middle" x="638" y="-192.6" font-family="Times,serif" font-size="14.00">AppComponent </text>
</g>
<!-- AppModule&#45;&gt;AppComponent  -->
<g id="edge10" class="edge">
<title>AppModule&#45;&gt;AppComponent </title>
<path fill="none" stroke="black" stroke-dasharray="1,5" d="M638,-149.91C638,-149.91 638,-168.79 638,-168.79"/>
<polygon fill="black" stroke="black" points="634.5,-168.79 638,-178.79 641.5,-168.79 634.5,-168.79"/>
</g>
<!-- AppRoutingModule -->
<g id="node10" class="node">
<title>AppRoutingModule</title>
<polygon fill="#8dd3c7" stroke="black" points="1270.28,-84.8 1267.28,-88.8 1246.28,-88.8 1243.28,-84.8 1141.72,-84.8 1141.72,-48.8 1270.28,-48.8 1270.28,-84.8"/>
<text text-anchor="middle" x="1206" y="-62.6" font-family="Times,serif" font-size="14.00">AppRoutingModule</text>
</g>
<!-- AppRoutingModule&#45;&gt;AppModule -->
<g id="edge9" class="edge">
<title>AppRoutingModule&#45;&gt;AppModule</title>
<path fill="none" stroke="black" d="M1206,-84.81C1206,-107.29 1206,-142.8 1206,-142.8 1206,-142.8 689.77,-142.8 689.77,-142.8"/>
<polygon fill="black" stroke="black" points="689.77,-139.3 679.77,-142.8 689.77,-146.3 689.77,-139.3"/>
</g>
</g>
</svg>
