<?xml version="1.0" encoding="UTF-8" standalone="no"?>
<!DOCTYPE svg PUBLIC "-//W3C//DTD SVG 1.1//EN"
 "http://www.w3.org/Graphics/SVG/1.1/DTD/svg11.dtd">
<!-- Generated by graphviz version 3.0.0 (20220226.1711)
 -->
<!-- Title: dependencies Pages: 1 -->
<svg width="1302pt" height="247pt"
 viewBox="0.00 0.00 1302.00 246.80" xmlns="http://www.w3.org/2000/svg" xmlns:xlink="http://www.w3.org/1999/xlink">
<g id="graph0" class="graph" transform="scale(1 1) rotate(0) translate(4 242.8)">
<title>dependencies</title>
<polygon fill="white" stroke="transparent" points="-4,4 -4,-242.8 1298,-242.8 1298,4 -4,4"/>
<text text-anchor="middle" x="647" y="-8.2" font-family="sans-serif" font-size="14.00">dependencies</text>
<g id="clust1" class="cluster">
<title>cluster_AppModule</title>
<polygon fill="none" stroke="black" stroke-dasharray="1,5" points="8,-32.8 8,-230.8 1286,-230.8 1286,-32.8 8,-32.8"/>
</g>
<g id="clust2" class="cluster">
<title>cluster_AppModule_declarations</title>
<polygon fill="none" stroke="black" points="168,-40.8 168,-92.8 1278,-92.8 1278,-40.8 168,-40.8"/>
</g>
<g id="clust11" class="cluster">
<title>cluster_AppModule_imports</title>
<polygon fill="none" stroke="black" points="16,-40.8 16,-92.8 160,-92.8 160,-40.8 16,-40.8"/>
</g>
<g id="clust13" class="cluster">
<title>cluster_AppModule_bootstrap</title>
<polygon fill="none" stroke="black" points="594,-170.8 594,-222.8 718,-222.8 718,-170.8 594,-170.8"/>
</g>
<!-- AppComponent -->
<g id="node1" class="node">
<title>AppComponent</title>
<polygon fill="#ffffb3" stroke="black" points="1269.94,-84.8 1164.06,-84.8 1164.06,-48.8 1269.94,-48.8 1269.94,-84.8"/>
<text text-anchor="middle" x="1217" y="-62.6" font-family="Times,serif" font-size="14.00">AppComponent</text>
</g>
<!-- AppModule -->
<g id="node9" class="node">
<title>AppModule</title>
<polygon fill="#8dd3c7" stroke="black" points="697.66,-149.8 694.66,-153.8 673.66,-153.8 670.66,-149.8 614.34,-149.8 614.34,-113.8 697.66,-113.8 697.66,-149.8"/>
<text text-anchor="middle" x="656" y="-127.6" font-family="Times,serif" font-size="14.00">AppModule</text>
</g>
<!-- AppComponent&#45;&gt;AppModule -->
<g id="edge1" class="edge">
<title>AppComponent&#45;&gt;AppModule</title>
<path fill="none" stroke="black" d="M1217,-84.81C1217,-107.29 1217,-142.8 1217,-142.8 1217,-142.8 707.71,-142.8 707.71,-142.8"/>
<polygon fill="black" stroke="black" points="707.71,-139.3 697.71,-142.8 707.71,-146.3 707.71,-139.3"/>
</g>
<!-- CategoriesComponent -->
<g id="node2" class="node">
<title>CategoriesComponent</title>
<polygon fill="#ffffb3" stroke="black" points="1146.7,-84.8 1005.3,-84.8 1005.3,-48.8 1146.7,-48.8 1146.7,-84.8"/>
<text text-anchor="middle" x="1076" y="-62.6" font-family="Times,serif" font-size="14.00">CategoriesComponent</text>
</g>
<!-- CategoriesComponent&#45;&gt;AppModule -->
<g id="edge2" class="edge">
<title>CategoriesComponent&#45;&gt;AppModule</title>
<path fill="none" stroke="black" d="M1076,-84.93C1076,-105.37 1076,-135.8 1076,-135.8 1076,-135.8 707.81,-135.8 707.81,-135.8"/>
<polygon fill="black" stroke="black" points="707.81,-132.3 697.81,-135.8 707.81,-139.3 707.81,-132.3"/>
</g>
<!-- FooterComponent -->
<g id="node3" class="node">
<title>FooterComponent</title>
<polygon fill="#ffffb3" stroke="black" points="986.88,-84.8 869.12,-84.8 869.12,-48.8 986.88,-48.8 986.88,-84.8"/>
<text text-anchor="middle" x="928" y="-62.6" font-family="Times,serif" font-size="14.00">FooterComponent</text>
</g>
<!-- FooterComponent&#45;&gt;AppModule -->
<g id="edge3" class="edge">
<title>FooterComponent&#45;&gt;AppModule</title>
<path fill="none" stroke="black" d="M928,-85.07C928,-103.36 928,-128.8 928,-128.8 928,-128.8 707.9,-128.8 707.9,-128.8"/>
<polygon fill="black" stroke="black" points="707.9,-125.3 697.9,-128.8 707.9,-132.3 707.9,-125.3"/>
</g>
<!-- HeaderComponent -->
<g id="node4" class="node">
<title>HeaderComponent</title>
<polygon fill="#ffffb3" stroke="black" points="850.75,-84.8 729.25,-84.8 729.25,-48.8 850.75,-48.8 850.75,-84.8"/>
<text text-anchor="middle" x="790" y="-62.6" font-family="Times,serif" font-size="14.00">HeaderComponent</text>
</g>
<!-- HeaderComponent&#45;&gt;AppModule -->
<g id="edge4" class="edge">
<title>HeaderComponent&#45;&gt;AppModule</title>
<path fill="none" stroke="black" d="M790,-84.81C790,-100.85 790,-121.8 790,-121.8 790,-121.8 707.66,-121.8 707.66,-121.8"/>
<polygon fill="black" stroke="black" points="707.66,-118.3 697.66,-121.8 707.66,-125.3 707.66,-118.3"/>
</g>
<!-- MainComponent -->
<g id="node5" class="node">
<title>MainComponent</title>
<polygon fill="#ffffb3" stroke="black" points="711.38,-84.8 600.62,-84.8 600.62,-48.8 711.38,-48.8 711.38,-84.8"/>
<text text-anchor="middle" x="656" y="-62.6" font-family="Times,serif" font-size="14.00">MainComponent</text>
</g>
<!-- MainComponent&#45;&gt;AppModule -->
<g id="edge5" class="edge">
<title>MainComponent&#45;&gt;AppModule</title>
<path fill="none" stroke="black" d="M656,-84.91C656,-84.91 656,-103.79 656,-103.79"/>
<polygon fill="black" stroke="black" points="652.5,-103.79 656,-113.79 659.5,-103.79 652.5,-103.79"/>
</g>
<!-- TodoListComponent -->
<g id="node6" class="node">
<title>TodoListComponent</title>
<polygon fill="#ffffb3" stroke="black" points="582.16,-84.8 449.84,-84.8 449.84,-48.8 582.16,-48.8 582.16,-84.8"/>
<text text-anchor="middle" x="516" y="-62.6" font-family="Times,serif" font-size="14.00">TodoListComponent</text>
</g>
<!-- TodoListComponent&#45;&gt;AppModule -->
<g id="edge6" class="edge">
<title>TodoListComponent&#45;&gt;AppModule</title>
<path fill="none" stroke="black" d="M516,-84.81C516,-100.85 516,-121.8 516,-121.8 516,-121.8 604,-121.8 604,-121.8"/>
<polygon fill="black" stroke="black" points="604,-125.3 614,-121.8 604,-118.3 604,-125.3"/>
</g>
<!-- UserComponent -->
<g id="node7" class="node">
<title>UserComponent</title>
<polygon fill="#ffffb3" stroke="black" points="431.77,-84.8 324.23,-84.8 324.23,-48.8 431.77,-48.8 431.77,-84.8"/>
<text text-anchor="middle" x="378" y="-62.6" font-family="Times,serif" font-size="14.00">UserComponent</text>
</g>
<!-- UserComponent&#45;&gt;AppModule -->
<g id="edge7" class="edge">
<title>UserComponent&#45;&gt;AppModule</title>
<path fill="none" stroke="black" d="M378,-85.07C378,-103.36 378,-128.8 378,-128.8 378,-128.8 604.08,-128.8 604.08,-128.8"/>
<polygon fill="black" stroke="black" points="604.08,-132.3 614.08,-128.8 604.08,-125.3 604.08,-132.3"/>
</g>
<!-- UserListComponent -->
<g id="node8" class="node">
<title>UserListComponent</title>
<polygon fill="#ffffb3" stroke="black" points="305.55,-84.8 176.45,-84.8 176.45,-48.8 305.55,-48.8 305.55,-84.8"/>
<text text-anchor="middle" x="241" y="-62.6" font-family="Times,serif" font-size="14.00">UserListComponent</text>
</g>
<!-- UserListComponent&#45;&gt;AppModule -->
<g id="edge8" class="edge">
<title>UserListComponent&#45;&gt;AppModule</title>
<path fill="none" stroke="black" d="M241,-84.93C241,-105.37 241,-135.8 241,-135.8 241,-135.8 604.31,-135.8 604.31,-135.8"/>
<polygon fill="black" stroke="black" points="604.31,-139.3 614.31,-135.8 604.31,-132.3 604.31,-139.3"/>
</g>
<!-- AppComponent  -->
<g id="node11" class="node">
<title>AppComponent </title>
<polygon fill="#80b1d3" stroke="black" points="710.44,-214.8 601.56,-214.8 601.56,-178.8 710.44,-178.8 710.44,-214.8"/>
<text text-anchor="middle" x="656" y="-192.6" font-family="Times,serif" font-size="14.00">AppComponent </text>
</g>
<!-- AppModule&#45;&gt;AppComponent  -->
<g id="edge10" class="edge">
<title>AppModule&#45;&gt;AppComponent </title>
<path fill="none" stroke="black" stroke-dasharray="1,5" d="M656,-149.91C656,-149.91 656,-168.79 656,-168.79"/>
<polygon fill="black" stroke="black" points="652.5,-168.79 656,-178.79 659.5,-168.79 652.5,-168.79"/>
</g>
<!-- AppRoutingModule -->
<g id="node10" class="node">
<title>AppRoutingModule</title>
<polygon fill="#8dd3c7" stroke="black" points="152.28,-84.8 149.28,-88.8 128.28,-88.8 125.28,-84.8 23.72,-84.8 23.72,-48.8 152.28,-48.8 152.28,-84.8"/>
<text text-anchor="middle" x="88" y="-62.6" font-family="Times,serif" font-size="14.00">AppRoutingModule</text>
</g>
<!-- AppRoutingModule&#45;&gt;AppModule -->
<g id="edge9" class="edge">
<title>AppRoutingModule&#45;&gt;AppModule</title>
<path fill="none" stroke="black" d="M88,-84.81C88,-107.29 88,-142.8 88,-142.8 88,-142.8 604.23,-142.8 604.23,-142.8"/>
<polygon fill="black" stroke="black" points="604.23,-146.3 614.23,-142.8 604.23,-139.3 604.23,-146.3"/>
</g>
</g>
</svg>
